# xmcd
#
# Track frame offsets:
#	150
#	19477
#	27622
#	43846
#	57773
#	72274
#	87003
#	102630
#	114952
#
# Disc length: 1706 seconds
#
# Revision: 1
# Processed by: cddbd v1.5.2PL0 Copyright (c) Steve Scherf et al.
# Submitted via: dBpowerAMP V4.0
#
DISCID=7906a809
DTITLE=Magnolia Electric Co. - Fading Trails
DYEAR=2006
DGENRE=Singer/Songwriter
TTITLE0=Don't Fade on Me
TTITLE1=Montgomery
TTITLE2=Lonesome Valley
TTITLE3=A Little at a Time
TTITLE4=The Old Horizon
TTITLE5=Memphis Moon
TTITLE6=Talk to Me Devil, Again
TTITLE7=Spanish Moon Fall and Rise
TTITLE8=Steady Now
EXTD=
EXTT0=
EXTT1=
EXTT2=
EXTT3=
EXTT4=
EXTT5=
EXTT6=
EXTT7=
EXTT8=
PLAYORDER=
